# xmcd CD database file
#
# Track frame offsets:
#	150
#	28551
#	78575
#	123660
#	156780
#	222255
#	256182
#
# Disc length: 4033 seconds
#
# Revision: 0
# Processed by: cddbd v1.5.1PL0 Copyright (c) Steve Scherf et al.
# Submitted via: CDex 1.51
#
DISCID=580fbf07
DTITLE=Orchestra Jazz Atipica Bonamici Group-One - Live at "La Sapienza", Pisa 2-7-1999
DYEAR=1999
DGENRE=Jazz
TTITLE0=Ballata per Hrabal
TTITLE1=Ent (La Vendetta Degli Uomini Albero)
TTITLE2=Stolen Moments
TTITLE3=Tarantella Esagonale
TTITLE4=Portovenere
TTITLE5=One For Tristan
TTITLE6=Keine Gegenstaende Aus Dem Fenster Werfen
EXTD=YEAR: 1999
EXTT0=
EXTT1=
EXTT2=
EXTT3=
EXTT4=
EXTT5=
EXTT6=
PLAYORDER=
